<svg width="185" height="58" viewBox="0 0 185 58" fill="none" xmlns="http://www.w3.org/2000/svg">
<path d="M52.3238 41.156C52.3616 41.2695 52.3189 41.3402 52.1964 41.3686C52.0732 41.397 51.9273 41.397 51.7572 41.3686C51.5872 41.3402 51.4073 41.2884 51.2187 41.2127C51.0293 41.1374 50.8971 41.0523 50.8218 40.9574C50.5384 40.5417 50.4061 40.0454 50.425 39.4682C50.4435 38.8913 50.5475 38.31 50.7368 37.7233C50.9254 37.1374 51.1665 36.5938 51.4598 36.0922C51.7523 35.5914 52.041 35.1984 52.3242 34.9151C53.3446 33.837 54.4641 32.9485 55.683 32.2484C56.9015 31.5489 58.1914 30.9626 59.5517 30.4894C60.3454 28.8255 61.1818 27.1989 62.0601 25.6103C62.9389 24.0216 63.7557 22.4805 64.5119 20.9864C62.9812 21.2515 61.4883 21.5632 60.0336 21.9226C59.3911 22.0924 58.6446 22.3481 57.7942 22.6886C56.9439 23.029 56.1029 23.4402 55.2718 23.9225C54.44 24.4047 53.689 24.9434 53.0185 25.5395C52.3476 26.1353 51.8748 26.7734 51.6012 27.4543C51.3268 28.1351 51.3177 28.8444 51.5728 29.5816C51.8276 30.3192 52.4655 31.0666 53.486 31.8225C53.5045 31.9359 53.3768 32.021 53.1035 32.0778C52.8291 32.1345 52.4939 32.1443 52.097 32.1062C51.7002 32.0687 51.2894 31.9741 50.8642 31.8225C50.439 31.6715 50.0845 31.4446 49.801 31.1416C49.6313 30.8393 49.4847 30.5416 49.3618 30.2481C49.2393 29.9553 49.1589 29.6478 49.1211 29.3263C49.0836 29.0048 49.0885 28.6454 49.1354 28.2483C49.1826 27.8511 49.282 27.3786 49.4329 26.8298C49.7919 25.5441 50.4673 24.4138 51.4594 23.4398C52.4515 22.4662 53.6463 21.6245 55.045 20.9149C56.4434 20.2057 57.9878 19.6103 59.6794 19.128C61.37 18.6457 63.09 18.244 64.8377 17.9225C66.5854 17.601 68.3099 17.3365 70.0103 17.1281C71.7111 16.9201 73.2743 16.7453 74.7014 16.6031C76.1282 16.4613 77.361 16.3292 78.4004 16.206C79.4394 16.0834 80.1764 15.9461 80.611 15.7948C80.6863 16.041 80.7055 16.3622 80.6677 16.7593C80.6296 17.1565 80.5543 17.5446 80.441 17.9225C80.3279 18.3007 80.1953 18.6366 80.0441 18.9294C79.8926 19.2229 79.7509 19.3788 79.6189 19.3973C77.143 19.6243 74.6962 19.8323 72.278 20.0215C69.8588 20.2106 67.4403 20.5038 65.0221 20.9009C65.2108 20.9958 65.419 21.1468 65.6457 21.3548C65.8722 21.5632 66.0849 21.7762 66.2833 21.9933C66.4818 22.2108 66.6424 22.4238 66.7652 22.6318C66.8877 22.8402 66.9304 22.9912 66.8926 23.0857C66.4391 24.2205 65.9288 25.2985 65.3619 26.3195C64.795 27.3408 64.2092 28.3526 63.6045 29.355C65.3805 28.9768 67.1617 28.6598 68.9472 28.4045C70.733 28.1495 72.4855 27.8612 74.2048 27.5394C74.3182 27.5776 74.3368 27.738 74.2615 28.0217C74.1859 28.3054 74.0631 28.608 73.893 28.9295C73.7229 29.2513 73.5336 29.549 73.3261 29.8229C73.1179 30.0975 72.9482 30.2443 72.8159 30.2625C72.1167 30.3192 71.3562 30.376 70.5342 30.4327C69.7122 30.4894 68.8569 30.5605 67.9691 30.6453C67.0805 30.7304 66.1595 30.8397 65.2055 30.9717C64.2508 31.1041 63.3014 31.2743 62.3569 31.4824C61.5065 32.9576 60.7457 34.4801 60.0752 36.0495C59.4044 37.6196 58.9841 39.3215 58.814 41.1557C58.7384 41.8554 58.899 42.3853 59.2959 42.7443C59.6927 43.1033 60.2309 43.3352 60.9116 43.4396C61.5919 43.5432 62.3663 43.5481 63.2356 43.4536C64.1042 43.3587 64.9738 43.2028 65.8435 42.9857C66.712 42.7682 67.5341 42.5177 68.3092 42.234C69.084 41.9503 69.7265 41.6667 70.2367 41.383C70.4254 41.2695 70.558 41.35 70.6336 41.6239C70.7088 41.8982 70.7421 42.234 70.7326 42.6309C70.7228 43.028 70.6567 43.4203 70.5342 43.808C70.411 44.1954 70.2458 44.4465 70.0383 44.56C69.3769 44.8815 68.5832 45.1649 67.6576 45.4111C66.7316 45.6566 65.763 45.8268 64.7523 45.9217C63.7413 46.0159 62.7401 46.0254 61.748 45.9501C60.7559 45.8744 59.8631 45.6709 59.0695 45.34C58.2758 45.009 57.6382 44.5407 57.1563 43.9359C56.6744 43.3303 56.4333 42.5556 56.4333 41.6096C56.4518 40.0776 56.6646 38.5604 57.0712 37.0568C57.4775 35.5532 57.9923 34.0545 58.6159 32.5604C57.5577 32.9576 56.561 33.4304 55.6259 33.9789C54.6905 34.5274 53.8447 35.1893 53.0892 35.9644C52.8809 36.1914 52.6545 36.5132 52.4088 36.929C52.1632 37.345 51.9697 37.7993 51.8276 38.2903C51.6858 38.7824 51.6386 39.2833 51.6858 39.7939C51.7331 40.3049 51.9455 40.7585 52.3238 41.156Z" fill="#FF9966"/>
<path d="M85.1744 36.9006C84.9662 37.3545 84.787 37.8228 84.6359 38.3047C84.4843 38.787 84.3807 39.2224 84.3241 39.6094C84.2674 39.9971 84.2716 40.3141 84.3384 40.5599C84.4042 40.8058 84.5603 40.9382 84.8059 40.9571H85.1461C85.7883 40.7683 86.3884 40.4279 86.9459 39.9358C87.503 39.4444 88.023 38.8865 88.5049 38.2624C88.9868 37.6382 89.4305 36.9857 89.8372 36.3049C90.2435 35.624 90.6165 35.0002 90.9567 34.4325C91.0134 34.3383 91.0984 34.2861 91.2118 34.2766C91.3248 34.2675 91.4242 34.2906 91.5092 34.3474C91.5943 34.4041 91.6555 34.4801 91.6933 34.5743C91.7308 34.6692 91.7119 34.7827 91.6366 34.9148C91.2583 35.5011 90.8902 36.0968 90.5311 36.7017C90.1721 37.3072 89.7941 37.8932 89.3976 38.4606C89.0008 39.028 88.5802 39.5768 88.1364 40.106C87.6923 40.6356 87.2055 41.1182 86.6768 41.5529C86.5445 41.6663 86.3793 41.7991 86.1809 41.95C85.9828 42.1017 85.7557 42.2435 85.5006 42.3756C85.2455 42.5083 84.9715 42.6169 84.6786 42.702C84.3853 42.7868 84.0689 42.82 83.7291 42.8011C83.2 42.7629 82.7699 42.6309 82.4396 42.4039C82.1089 42.1773 81.8583 41.8842 81.6882 41.5248C81.5185 41.1655 81.4286 40.7585 81.4191 40.305C81.4093 39.851 81.4709 39.388 81.6032 38.9149C81.2252 39.3877 80.8238 39.851 80.3987 40.305C79.9735 40.7589 79.5343 41.1658 79.0807 41.5248C78.6272 41.8842 78.1639 42.1728 77.6918 42.3899C77.2194 42.6074 76.7564 42.6975 76.3028 42.6593C75.4899 42.6218 74.8617 42.4278 74.418 42.0775C73.9739 41.7276 73.6478 41.3164 73.4403 40.8436C73.232 40.3711 73.1141 39.8794 73.0858 39.3684C73.0578 38.8578 73.0717 38.4322 73.1284 38.0921C73.2226 37.4302 73.4304 36.702 73.7521 35.9077C74.0733 35.1133 74.489 34.3239 74.9993 33.539C75.5095 32.7545 76.0995 32.0071 76.7707 31.2982C77.4412 30.5889 78.1597 29.9932 78.9247 29.5109C79.69 29.0286 80.4883 28.6882 81.3197 28.4896C82.1509 28.291 83.0013 28.3054 83.8709 28.5323C84.2488 28.6455 84.5554 28.8349 84.7919 29.0997C85.0278 29.3648 85.2122 29.6766 85.3445 30.0359L86.8185 27.2557C87.1772 26.613 87.5132 25.9556 87.8246 25.2842C88.1364 24.6131 88.4293 23.9512 88.7033 23.2983C88.9774 22.6458 89.2136 22.0266 89.412 21.4403C89.6104 20.8544 89.7756 20.3153 89.9079 19.8233C90.0965 19.729 90.3471 19.743 90.6592 19.866C90.971 19.9893 91.2636 20.1686 91.5379 20.405C91.8116 20.6418 92.0338 20.9206 92.2039 21.2421C92.374 21.5636 92.4118 21.8757 92.3173 22.1779C92.2417 22.4049 92.0951 22.7502 91.8781 23.2136C91.6608 23.6769 91.4057 24.202 91.1128 24.7879C90.8195 25.3742 90.508 25.9934 90.1773 26.6459C89.8466 27.2984 89.5205 27.9275 89.1996 28.5327C88.5004 29.8941 87.7917 31.2656 87.074 32.6456C86.3555 34.0262 85.7228 35.4636 85.1748 36.9574V36.9006H85.1744ZM78.145 40.5603C78.447 40.485 78.8155 40.2675 79.2501 39.9078C79.6848 39.5488 80.124 39.1278 80.568 38.6455C81.0118 38.1632 81.4328 37.6575 81.8293 37.1279C82.2261 36.5987 82.5474 36.135 82.793 35.7378L83.0765 34.8867C83.3029 34.3008 83.5535 33.7194 83.8275 33.1418C84.1015 32.5653 84.3804 31.9745 84.6639 31.3689C84.6072 30.9907 84.4696 30.6271 84.253 30.2769C84.0353 29.927 83.6245 29.7333 83.0201 29.6951C82.491 29.6766 81.9759 29.7802 81.4755 30.0072C80.9747 30.2338 80.4977 30.5462 80.0442 30.9434C79.5906 31.3406 79.1654 31.7994 78.7689 32.3191C78.3721 32.8396 78.0131 33.3786 77.6918 33.9362C77.3702 34.4941 77.0916 35.0524 76.8558 35.61C76.6192 36.1679 76.4351 36.6838 76.3032 37.1559C76.2084 37.4778 76.1331 37.8652 76.0764 38.3187C76.0197 38.7727 76.0383 39.1936 76.1331 39.581C76.2272 39.9691 76.4257 40.2668 76.7284 40.4748C77.03 40.6836 77.5025 40.7119 78.145 40.5603Z" fill="#FF9966"/>
<path d="M93.5073 28.5043C93.6959 28.4097 93.9465 28.4241 94.2583 28.5467C94.5701 28.67 94.8536 28.8542 95.1087 29.0997C95.3638 29.3456 95.5622 29.6293 95.704 29.9508C95.8453 30.2727 95.8502 30.5844 95.718 30.887C95.6046 31.1521 95.3729 31.5773 95.0233 32.1633C94.6737 32.7496 94.2958 33.4164 93.8898 34.1631C93.4832 34.9102 93.0723 35.6807 92.6569 36.4751C92.2412 37.2694 91.9056 37.9976 91.6508 38.6592C91.3957 39.3211 91.2442 39.8647 91.1973 40.2906C91.15 40.7161 91.2967 40.9385 91.6365 40.9571H91.9483C92.6286 40.7683 93.2613 40.4422 93.8471 39.9785C94.4326 39.5151 94.9855 38.9905 95.5055 38.4042C96.0252 37.8182 96.5162 37.2036 96.9795 36.5605C97.4425 35.9178 97.8723 35.3123 98.2691 34.7449C98.3443 34.6507 98.4392 34.5985 98.5526 34.589C98.6656 34.5796 98.7601 34.5988 98.8357 34.6454C98.9109 34.693 98.9585 34.7687 98.9774 34.8724C98.996 34.9767 98.9491 35.0951 98.8357 35.2268C98.042 36.4565 97.2294 37.5955 96.3983 38.6451C95.5664 39.6945 94.5747 40.6639 93.4223 41.5525C93.2708 41.666 93.0916 41.7987 92.8837 41.9497C92.6755 42.1013 92.4396 42.2383 92.175 42.3608C91.9101 42.4841 91.6225 42.5878 91.3103 42.6729C90.9985 42.7577 90.6818 42.8004 90.3609 42.8004C89.9641 42.7811 89.6425 42.6684 89.3971 42.46C89.1518 42.2523 88.9719 41.9777 88.8586 41.6373C88.7452 41.2968 88.6983 40.9095 88.7168 40.4745C88.7357 40.0395 88.8208 39.5764 88.9716 39.0844C89.1609 38.4035 89.4535 37.5997 89.8503 36.6729C90.2472 35.7466 90.6724 34.7964 91.1259 33.8223C91.5794 32.8483 92.0232 31.8932 92.4578 30.957C92.8932 30.0215 93.2427 29.2037 93.5073 28.5043ZM96.2282 20.6747C96.3983 20.6561 96.625 20.7507 96.9085 20.9584C97.1919 21.1668 97.4705 21.4123 97.7445 21.696C98.0182 21.9797 98.2499 22.2683 98.4392 22.5611C98.6278 22.8546 98.7226 23.0574 98.7226 23.1712C98.6278 23.5305 98.4913 23.8948 98.3118 24.2632C98.1319 24.632 97.9433 25.0106 97.7449 25.398C97.5465 25.7857 97.3526 26.1689 97.1636 26.5468C96.9746 26.9254 96.8329 27.3033 96.7384 27.6816C96.5869 27.663 96.4217 27.5779 96.2425 27.4263C96.0627 27.2753 95.8975 27.1002 95.7467 26.9016C95.5951 26.703 95.4677 26.5044 95.3642 26.3058C95.2602 26.1073 95.2084 25.9325 95.2084 25.7808C95.227 25.4593 95.2837 25.0905 95.3785 24.6744C95.4726 24.2587 95.5815 23.8233 95.7043 23.3698C95.8268 22.9159 95.9402 22.4577 96.0445 21.994C96.148 21.5307 96.2093 21.0908 96.2282 20.6747Z" fill="#FF9966"/>
<path d="M98.6656 28.5891C98.5329 28.6273 98.4195 28.6273 98.3254 28.5891C98.2306 28.5516 98.1648 28.49 98.127 28.4048C98.0888 28.3197 98.0888 28.2255 98.127 28.1215C98.1648 28.0178 98.2404 27.9278 98.3538 27.8518C99.7329 26.9633 101.15 26.2165 102.605 25.611C103.153 24.4766 103.611 23.4269 103.98 22.4623C104.348 21.4978 104.636 20.6183 104.844 19.824C105.033 19.7298 105.288 19.7438 105.61 19.8667C105.931 19.99 106.233 20.1693 106.517 20.4057C106.8 20.6425 107.027 20.9213 107.197 21.2428C107.367 21.5643 107.395 21.8764 107.282 22.1786C107.206 22.387 107.079 22.6893 106.9 23.0865C106.72 23.4836 106.498 23.9473 106.233 24.4766C108.123 24.0605 110.032 23.8903 111.959 23.9659C112.016 24.1176 112.03 24.2878 112.002 24.4766C111.973 24.6657 111.916 24.8408 111.831 25.0012C111.746 25.1623 111.637 25.2947 111.506 25.3984C111.373 25.5024 111.241 25.5451 111.109 25.5259C110.164 25.4691 109.233 25.474 108.317 25.5402C107.4 25.6068 106.46 25.7437 105.497 25.9514C105.288 26.3864 105.071 26.8214 104.845 27.2561C104.618 27.6914 104.401 28.1169 104.193 28.5327C104.06 28.7975 103.814 29.2843 103.456 29.9935C103.097 30.7028 102.695 31.5111 102.251 32.4189C101.807 33.3268 101.368 34.2819 100.933 35.2839C100.498 36.2866 100.144 37.2036 99.8704 38.0357C99.5961 38.8683 99.4404 39.5582 99.4029 40.1064C99.3648 40.6552 99.5254 40.9389 99.8848 40.9574H100.225C100.867 40.7687 101.467 40.4282 102.025 39.9361C102.582 39.4447 103.097 38.8868 103.569 38.2627C104.042 37.6386 104.481 36.9861 104.887 36.3052C105.293 35.6243 105.676 35.0006 106.035 34.4328C106.092 34.3386 106.172 34.2864 106.276 34.277C106.38 34.2679 106.474 34.291 106.559 34.3477C106.644 34.4045 106.706 34.4805 106.744 34.5747C106.781 34.6696 106.762 34.7831 106.687 34.9151C106.309 35.5014 105.94 36.0972 105.582 36.702C105.223 37.3076 104.849 37.8935 104.462 38.4609C104.075 39.0283 103.659 39.5771 103.215 40.1064C102.771 40.6359 102.284 41.1185 101.756 41.5532C101.623 41.6667 101.453 41.7994 101.245 41.9504C101.037 42.102 100.806 42.239 100.551 42.3616C100.296 42.4848 100.022 42.5885 99.7287 42.6736C99.4355 42.7584 99.1191 42.8011 98.7793 42.8011C98.3825 42.7818 98.0468 42.6736 97.7728 42.475C97.4988 42.2764 97.291 42.0071 97.1492 41.6663C97.0075 41.3259 96.9225 40.9336 96.8941 40.4892C96.8658 40.0451 96.8987 39.5771 96.9935 39.0851C97.1443 38.0452 97.3903 37.0284 97.7305 36.0355C98.0703 35.0426 98.4577 34.0595 98.8923 33.0851C99.327 32.1114 99.7994 31.142 100.31 30.1774C100.82 29.2132 101.32 28.2392 101.812 27.2557L101.897 27.0855C101.368 27.2939 100.834 27.5208 100.296 27.7664C99.7567 28.0126 99.2132 28.2868 98.6656 28.5891Z" fill="#FF9966"/>
<path d="M118.591 38.9292C118.138 39.5439 117.642 40.1347 117.103 40.7025C116.565 41.2699 115.993 41.7567 115.388 42.1633C114.784 42.5703 114.198 42.7734 113.631 42.7734C113.31 42.7734 112.993 42.7167 112.681 42.6032C112.37 42.4897 112.101 42.3195 111.874 42.0926C111.647 41.8656 111.467 41.5725 111.335 41.2131C111.203 40.8541 111.146 40.4286 111.165 39.9365C111.184 39.4451 111.251 38.9579 111.364 38.4756C111.477 37.9934 111.623 37.4827 111.803 36.9437C111.982 36.4047 112.204 35.8187 112.469 35.1848C112.733 34.5512 113.026 33.8469 113.348 33.0714C113.555 32.5797 113.716 32.131 113.83 31.7241C113.943 31.3174 113.962 31.0197 113.886 30.8306C113.811 30.6418 113.612 30.6086 113.291 30.7311C112.969 30.8544 112.478 31.1991 111.817 31.7668C111.099 32.4288 110.457 33.0529 109.89 33.6388C109.323 34.2251 108.746 34.8871 108.16 35.6247C107.669 36.7216 107.258 37.8421 106.928 38.9863C106.597 40.1309 106.384 41.3266 106.29 42.5748C106.29 42.7076 106.186 42.7451 105.978 42.6883C105.77 42.6316 105.539 42.5325 105.283 42.3906C105.029 42.2488 104.797 42.0835 104.589 41.8943C104.382 41.7056 104.268 41.5353 104.249 41.3837C104.306 40.2303 104.499 39.0672 104.83 37.8946C105.161 36.7223 105.576 35.5403 106.077 34.3484C106.578 33.1573 107.121 31.9703 107.707 30.7882C108.293 29.6065 108.869 28.4294 109.436 27.2564C109.758 26.5948 110.069 25.9279 110.372 25.2565C110.674 24.5855 110.962 23.9281 111.236 23.285C111.51 22.6423 111.751 22.0277 111.959 21.441C112.167 20.8551 112.337 20.3161 112.469 19.824C112.658 19.7298 112.913 19.7438 113.235 19.8667C113.556 19.99 113.858 20.1693 114.142 20.4057C114.425 20.6425 114.652 20.9213 114.822 21.2428C114.992 21.5643 115.021 21.8764 114.907 22.1786C114.832 22.4056 114.685 22.7509 114.468 23.2143C114.251 23.6777 114 24.2027 113.717 24.7886C113.434 25.3749 113.122 25.9941 112.782 26.6466C112.441 27.2991 112.12 27.9282 111.818 28.5334L109.834 32.2494C110.23 31.7955 110.656 31.3514 111.109 30.9164C111.563 30.4814 112.035 30.0892 112.526 29.7393C113.017 29.3894 113.518 29.1057 114.028 28.8882C114.539 28.671 115.058 28.5432 115.587 28.5054C115.795 28.5054 116.017 28.5859 116.254 28.7463C116.49 28.9071 116.698 29.1057 116.877 29.3421C117.057 29.5789 117.194 29.8293 117.288 30.0941C117.382 30.3588 117.392 30.5952 117.317 30.8033C116.844 32.0894 116.41 33.172 116.013 34.0511C115.616 34.9305 115.266 35.7154 114.964 36.4054C114.662 37.096 114.416 37.7577 114.227 38.3912C114.038 39.0248 113.915 39.7386 113.859 40.533C113.859 40.5897 113.868 40.6562 113.887 40.7312C113.906 40.8072 113.948 40.873 114.015 40.9298C114.081 40.9865 114.18 41.0149 114.312 41.0149C114.444 41.0149 114.614 40.968 114.822 40.873C115.37 40.6086 116.027 40.1452 116.792 39.4829C117.558 38.821 118.309 37.9419 119.046 36.8446C119.329 36.4288 119.589 36.0177 119.825 35.6107C120.061 35.2041 120.293 34.8121 120.52 34.4335C120.576 34.3393 120.657 34.2871 120.76 34.2777C120.864 34.2686 120.959 34.2917 121.044 34.3484C121.129 34.4052 121.186 34.4812 121.214 34.5754C121.242 34.6703 121.218 34.7838 121.143 34.9158L119.669 37.3839C119.403 37.7993 119.045 38.3149 118.591 38.9292Z" fill="#FF9966"/>
<path d="M144.44 33.9576C144.326 33.9957 144.166 33.9526 143.958 33.8294C143.75 33.7061 143.561 33.5544 143.391 33.3748C143.221 33.1947 143.094 33.0196 143.009 32.849C142.923 32.6785 142.928 32.5454 143.023 32.4505C144.591 32.0904 146.178 31.7591 147.784 31.4558C149.39 31.1525 151.015 30.9154 152.659 30.7448C154.53 29.0241 156.316 27.3219 158.017 25.6386C159.717 23.9557 161.243 22.4192 162.594 21.0288C163.945 19.639 165.079 18.443 165.995 17.4402C166.912 16.4382 167.511 15.7482 167.795 15.3696C167.908 15.3129 168.064 15.3745 168.263 15.5538C168.461 15.7339 168.655 15.951 168.844 16.2063C169.033 16.4617 169.194 16.7124 169.326 16.9583C169.458 17.2042 169.496 17.3838 169.439 17.4973C169.514 17.5166 169.543 17.5639 169.524 17.6392C169.278 18.3579 168.886 19.2419 168.348 20.2915C167.809 21.3412 167.19 22.4809 166.491 23.7099C165.792 24.9396 165.036 26.2348 164.224 27.5965C163.411 28.9579 162.618 30.3196 161.843 31.6813C161.068 33.0427 160.331 34.3621 159.633 35.6383C158.933 36.915 158.343 38.0921 157.861 39.1702C157.379 40.2482 157.034 41.1893 156.826 41.9928C156.618 42.7966 156.609 43.3969 156.798 43.7944C156.855 43.9079 156.935 44.0259 157.039 44.1488C157.142 44.2714 157.242 44.3709 157.336 44.4465C157.45 44.5218 157.516 44.6118 157.535 44.7159C157.553 44.8195 157.539 44.9145 157.492 44.9996C157.445 45.0847 157.369 45.1414 157.266 45.1698C157.162 45.1978 157.043 45.1838 156.911 45.1271C155.985 45.0889 155.343 44.801 154.984 44.262C154.625 43.7229 154.441 43.0848 154.431 42.3468C154.421 41.6092 154.521 40.8576 154.729 40.0917C154.936 39.3257 155.144 38.6875 155.352 38.1769C155.824 37.0803 156.344 35.9924 156.911 34.9148C157.478 33.8367 158.074 32.7587 158.697 31.681C157.166 31.6243 155.692 31.6243 154.276 31.681C154.067 31.8894 153.86 32.0876 153.652 32.2767C153.444 32.4659 153.236 32.6554 153.028 32.8441C152.121 33.6767 151.172 34.5652 150.18 35.5109C149.188 36.4569 148.167 37.3882 147.119 38.3051C146.07 39.2227 144.988 40.1064 143.873 40.9574C142.758 41.8085 141.634 42.5601 140.5 43.2126C139.367 43.8651 138.219 44.3993 137.057 44.8153C135.894 45.2314 134.737 45.4678 133.584 45.5246C132.015 45.5999 130.674 45.4111 129.56 44.9572C128.444 44.5033 127.537 43.8886 126.838 43.1135C126.139 42.3381 125.643 41.4397 125.35 40.4184C125.058 39.3971 124.963 38.3433 125.067 37.2554C125.171 36.1683 125.459 35.0997 125.932 34.05C126.404 33.0007 127.051 32.0645 127.873 31.2418C128.695 30.4191 129.691 29.748 130.863 29.2276C132.035 28.7075 133.358 28.429 134.832 28.3908C136.06 28.3723 137.108 28.6276 137.978 29.1568C138.847 29.6864 139.546 30.4429 140.075 31.426C140.094 31.5395 140.108 31.7286 140.118 31.9934C140.127 32.2585 140.122 32.5184 140.104 32.7737C140.084 33.0287 140.047 33.2371 139.99 33.3979C139.933 33.5586 139.867 33.5923 139.792 33.497C139.565 33.1566 139.286 32.7877 138.956 32.3909C138.625 31.9937 138.247 31.6249 137.822 31.2845C137.397 30.9441 136.919 30.6604 136.391 30.4334C135.861 30.2065 135.304 30.093 134.718 30.093C133.433 30.0552 132.285 30.2352 131.274 30.6331C130.263 31.0313 129.399 31.5616 128.681 32.2249C127.962 32.8886 127.391 33.6511 126.966 34.5134C126.541 35.376 126.285 36.2572 126.2 37.157C126.115 38.0571 126.195 38.9289 126.441 39.7719C126.687 40.6153 127.117 41.355 127.731 41.9896C128.345 42.6242 129.148 43.1167 130.14 43.4673C131.132 43.8175 132.327 43.9362 133.726 43.8228C135.049 43.7278 136.423 43.3296 137.85 42.6284C139.277 41.9273 140.731 41.032 142.215 39.9421C143.698 38.8525 145.205 37.6162 146.736 36.232C148.267 34.8489 149.806 33.4273 151.356 31.9675C150.222 32.1381 149.089 32.3846 147.955 32.7068C146.821 33.0291 145.649 33.4462 144.44 33.9576ZM165.386 21.0719C163.685 22.6416 162.022 24.2254 160.398 25.8232C158.772 27.4217 157.128 29.0055 155.466 30.5749C156.127 30.5375 156.774 30.528 157.407 30.5466C158.04 30.5658 158.678 30.5942 159.32 30.6317C160.265 29.0619 161.252 27.4925 162.282 25.9227C163.312 24.3529 164.346 22.7362 165.386 21.0719Z" fill="#FF9966"/>
<path d="M169.553 28.5327C169.42 28.7975 169.175 29.2843 168.816 29.9935C168.457 30.7028 168.055 31.5111 167.612 32.4189C167.167 33.3268 166.728 34.2819 166.294 35.2839C165.859 36.2866 165.504 37.2036 165.231 38.0357C164.956 38.8683 164.801 39.5582 164.763 40.1064C164.725 40.6552 164.886 40.9389 165.245 40.9574H165.585C166.227 40.7687 166.828 40.4282 167.385 39.9361C167.942 39.4448 168.457 38.8868 168.93 38.2627C169.402 37.6386 169.841 36.9861 170.248 36.3052C170.654 35.6243 171.036 35.0006 171.396 34.4328C171.452 34.3386 171.532 34.2864 171.636 34.277C171.74 34.2679 171.835 34.291 171.92 34.3477C172.005 34.4044 172.066 34.4805 172.104 34.5747C172.142 34.6696 172.123 34.7831 172.047 34.9151C171.669 35.5014 171.301 36.0972 170.942 36.702C170.583 37.3076 170.21 37.8935 169.822 38.4609C169.435 39.0283 169.019 39.5772 168.576 40.1064C168.132 40.6359 167.645 41.1186 167.116 41.5532C166.983 41.6667 166.814 41.7994 166.606 41.9504C166.398 42.102 166.167 42.239 165.911 42.3616C165.656 42.4848 165.382 42.5885 165.089 42.6736C164.796 42.7584 164.479 42.8011 164.14 42.8011C163.743 42.7819 163.407 42.6736 163.133 42.475C162.859 42.2765 162.651 42.0071 162.51 41.6663C162.368 41.3259 162.283 40.9336 162.254 40.4892C162.226 40.0451 162.259 39.5771 162.354 39.0851C162.505 38.0452 162.751 37.0284 163.091 36.0355C163.431 35.0426 163.823 34.0595 164.267 33.0851C164.711 32.1114 165.183 31.142 165.684 30.1774C166.184 29.2132 166.68 28.2392 167.172 27.2557C167.493 26.5941 167.805 25.9272 168.107 25.2558C168.409 24.5848 168.698 23.9274 168.972 23.2843C169.245 22.6416 169.487 22.027 169.695 21.4403C169.902 20.8544 170.073 20.3153 170.205 19.8232C170.394 19.729 170.649 19.743 170.97 19.866C171.292 19.9893 171.594 20.1686 171.877 20.405C172.161 20.6418 172.388 20.9206 172.558 21.2421C172.728 21.5636 172.756 21.8757 172.643 22.1779C172.567 22.4049 172.421 22.7502 172.204 23.2136C171.986 23.6769 171.736 24.202 171.453 24.7879C171.169 25.3742 170.857 25.9934 170.517 26.6459C170.176 27.2984 169.855 27.9275 169.553 28.5327Z" fill="#FF9966"/>
<path d="M171.65 28.5891C171.518 28.6273 171.404 28.6273 171.31 28.5891C171.215 28.5516 171.15 28.49 171.112 28.4048C171.074 28.3197 171.074 28.2255 171.112 28.1215C171.15 28.0178 171.225 27.9278 171.338 27.8518C172.718 26.9633 174.135 26.2165 175.59 25.611C176.138 24.4766 176.596 23.4269 176.965 22.4623C177.333 21.4978 177.621 20.6183 177.829 19.824C178.018 19.7298 178.273 19.7438 178.594 19.8667C178.915 19.99 179.218 20.1693 179.501 20.4057C179.785 20.6425 180.012 20.9213 180.182 21.2428C180.352 21.5643 180.38 21.8764 180.267 22.1786C180.191 22.387 180.063 22.6893 179.884 23.0865C179.704 23.4836 179.483 23.9473 179.218 24.4766C181.107 24.0605 183.016 23.8903 184.944 23.9659C185 24.1176 185.015 24.2878 184.986 24.4766C184.958 24.6657 184.901 24.8408 184.816 25.0012C184.731 25.1623 184.622 25.2947 184.49 25.3984C184.358 25.5024 184.225 25.5451 184.094 25.5259C183.148 25.4691 182.218 25.474 181.302 25.5402C180.385 25.6068 179.445 25.7437 178.481 25.9514C178.273 26.3864 178.056 26.8214 177.829 27.2561C177.603 27.6914 177.385 28.1169 177.177 28.5327C177.045 28.7975 176.799 29.2843 176.44 29.9935C176.081 30.7028 175.68 31.5111 175.236 32.4189C174.792 33.3268 174.352 34.2819 173.918 35.2839C173.483 36.2866 173.129 37.2036 172.855 38.0357C172.581 38.8683 172.425 39.5582 172.388 40.1064C172.35 40.6552 172.51 40.9389 172.87 40.9574H173.21C173.852 40.7687 174.452 40.4282 175.009 39.9361C175.567 39.4447 176.082 38.8868 176.554 38.2627C177.026 37.6386 177.465 36.9861 177.872 36.3052C178.278 35.6243 178.661 35.0006 179.02 34.4328C179.077 34.3386 179.157 34.2864 179.261 34.277C179.364 34.2679 179.459 34.291 179.544 34.3477C179.629 34.4045 179.69 34.4805 179.728 34.5747C179.766 34.6696 179.747 34.7831 179.672 34.9151C179.293 35.5014 178.925 36.0972 178.566 36.702C178.207 37.3076 177.834 37.8935 177.447 38.4609C177.059 39.0283 176.643 39.5771 176.2 40.1064C175.756 40.6359 175.269 41.1185 174.74 41.5532C174.607 41.6667 174.438 41.7994 174.23 41.9504C174.022 42.102 173.791 42.239 173.535 42.3616C173.28 42.4848 173.006 42.5885 172.713 42.6736C172.42 42.7584 172.103 42.8011 171.764 42.8011C171.367 42.7818 171.031 42.6736 170.757 42.475C170.483 42.2764 170.275 42.0071 170.134 41.6663C169.992 41.3259 169.907 40.9336 169.878 40.4892C169.85 40.0451 169.883 39.5771 169.978 39.0851C170.129 38.0452 170.375 37.0284 170.715 36.0355C171.055 35.0426 171.442 34.0595 171.877 33.0851C172.311 32.1114 172.784 31.142 173.294 30.1774C173.804 29.2132 174.305 28.2392 174.796 27.2557L174.881 27.0855C174.352 27.2939 173.819 27.5208 173.28 27.7664C172.741 28.0126 172.198 28.2868 171.65 28.5891Z" fill="#FF9966"/>
<path fill-rule="evenodd" clip-rule="evenodd" d="M23.7045 39.1089C23.2002 33.1471 23.8644 15.2242 48.664 8.38931C46.8051 11.7443 46.958 15.4922 47.1096 19.1988C47.2604 22.8794 47.4095 26.516 45.3735 29.3631C43.0813 32.5688 39.6979 33.2045 35.9748 33.9043C32.0337 34.6447 27.7446 35.451 23.7045 39.1089Z" fill="#FD7984"/>
<path fill-rule="evenodd" clip-rule="evenodd" d="M37.3166 10.7622C23.6132 18.431 21.5838 30.4103 21.5982 36.9045C14.4323 21.4312 28.8803 6.1075 34.2286 1.16C34.2426 1.38696 34.2657 1.62127 34.2986 1.86434C34.469 3.1238 34.9072 4.60076 35.7271 6.46089C36.6653 8.58824 37.1125 9.99901 37.3166 10.7622Z" fill="#FF9966"/>
<path fill-rule="evenodd" clip-rule="evenodd" d="M24.3564 41.6544C38.1963 34.1019 41.833 37.4116 46.046 41.2496C47.9851 43.0162 50.0348 44.8829 53.0675 46.0591C50.9478 47.0292 48.5205 47.8211 45.9733 48.3328C45.9397 48.336 45.9057 48.3409 45.8714 48.3475C43.3311 48.8501 40.6792 49.0746 38.1015 48.9219C37.4012 48.8802 36.7062 48.8109 36.0207 48.7114C31.2757 48.0211 26.965 45.8937 24.3564 41.6544Z" fill="#FF9966"/>
<path fill-rule="evenodd" clip-rule="evenodd" d="M37.0101 50.857C37.3306 50.8874 37.6519 50.9123 37.9742 50.9316C40.3969 51.0773 42.87 50.913 45.2616 50.5102C45.6066 51.962 46.5249 54.6557 48.8794 57.0927C43.3431 57.2443 29.856 56.4825 25.2969 45.9879C28.4482 48.9601 32.6129 50.4395 37.0101 50.857Z" fill="#FD7984"/>
<path d="M13.2607 32.9737C13.5819 32.9191 13.8888 32.8805 14.1818 32.8578C13.4056 30.4128 10.3617 22.6728 2.60152 21.3468C2.7282 21.5776 2.79049 21.8466 2.76705 22.1285C2.70371 22.8921 2.03355 23.4594 1.27101 23.3957C0.508112 23.3323 -0.0588091 22.6616 0.00488204 21.8984C0.0682232 21.1349 0.738029 20.5675 1.50092 20.6313L1.54397 20.6355C10.6347 21.4203 14.0085 30.3665 14.77 32.834C15.2463 32.8326 15.6837 32.877 16.0865 32.965C15.9161 30.2972 14.5478 18.5218 3.62198 14.5304C3.67097 14.6929 3.69092 14.867 3.67587 15.0463C3.61253 15.8098 2.94237 16.3772 2.17948 16.3138C1.41694 16.2505 0.850015 15.5797 0.913356 14.8162C0.997344 13.8047 2.05385 13.2633 2.91053 13.6884C15.2887 17.5533 16.5394 30.7507 16.6647 33.1292C22.4368 35.142 20.5691 47.0544 31.286 54.6182C17.0332 49.0732 19.4387 37.2323 14.3994 33.5975L14.3952 33.5985L14.3945 33.5936C14.053 33.3481 13.6775 33.1397 13.2607 32.9737Z" fill="#FF9966"/>
</svg>
